<mxfile host="app.diagrams.net" modified="2022-09-27T02:04:04.048Z" agent="5.0 (Windows)" etag="gEZOevMbj-w7e81slnsk" version="20.3.6" type="github">
  <diagram id="H44H7_iWvHATmT_6z4R7" name="第 1 页">
    <mxGraphModel dx="1146" dy="519" grid="1" gridSize="10" guides="1" tooltips="1" connect="1" arrows="1" fold="1" page="1" pageScale="1" pageWidth="827" pageHeight="1169" math="0" shadow="0">
      <root>
        <mxCell id="0" />
        <mxCell id="1" parent="0" />
        <mxCell id="TX0WCnGdg8a3UXpxRX2t-2" value="测试交付项目" style="rounded=1;whiteSpace=wrap;html=1;" vertex="1" parent="1">
          <mxGeometry x="350" y="170" width="120" height="60" as="geometry" />
        </mxCell>
        <mxCell id="TX0WCnGdg8a3UXpxRX2t-3" value="" style="rounded=0;whiteSpace=wrap;html=1;" vertex="1" parent="1">
          <mxGeometry x="160" y="170" width="120" height="60" as="geometry" />
        </mxCell>
      </root>
    </mxGraphModel>
  </diagram>
</mxfile>
